<svg xmlns="http://www.w3.org/2000/svg" width="1920" height="1080"><path d="M1012,454L1049,339L915,356Z" fill="#d2d2cd" stroke="#d2d2cd" stroke-width="1.51"/><path d="M915,356L849,453L1012,454Z" fill="#d3d3ce" stroke="#d3d3ce" stroke-width="1.51"/><path d="M1012,454L1143,325L1049,339Z" fill="#cececa" stroke="#cececa" stroke-width="1.51"/><path d="M1049,339L992,209L915,356Z" fill="#d7d7d2" stroke="#d7d7d2" stroke-width="1.51"/><path d="M1143,325L992,209L1049,339Z" fill="#d3d4cf" stroke="#d3d4cf" stroke-width="1.51"/><path d="M915,356L747,356L849,453Z" fill="#d7d7d2" stroke="#d7d7d2" stroke-width="1.51"/><path d="M1012,454L1181,511L1143,325Z" fill="#c8c9c4" stroke="#c8c9c4" stroke-width="1.51"/><path d="M857,639L1057,582L1012,454Z" fill="#c8c8c3" stroke="#c8c8c3" stroke-width="1.51"/><path d="M992,209L885,192L915,356Z" fill="#dcdcd7" stroke="#dcdcd7" stroke-width="1.51"/><path d="M1057,582L1181,511L1012,454Z" fill="#c5c6c1" stroke="#c5c6c1" stroke-width="1.51"/><path d="M783,208L747,356L915,356Z" fill="#ddddd8" stroke="#ddddd8" stroke-width="1.51"/><path d="M885,192L783,208L915,356Z" fill="#deded9" stroke="#deded9" stroke-width="1.51"/><path d="M1143,325L1164,175L992,209Z" fill="#d4d4cf" stroke="#d4d4cf" stroke-width="1.51"/><path d="M992,209L865,99L885,192Z" fill="#e0e0dc" stroke="#e0e0dc" stroke-width="1.51"/><path d="M1254,179L1164,175L1143,325Z" fill="#cfd0cc" stroke="#cfd0cc" stroke-width="1.51"/><path d="M849,453L857,639L1012,454Z" fill="#cecec9" stroke="#cecec9" stroke-width="1.51"/><path d="M747,356L740,513L849,453Z" fill="#d6d6d1" stroke="#d6d6d1" stroke-width="1.51"/><path d="M740,513L857,639L849,453Z" fill="#d0d0cb" stroke="#d0d0cb" stroke-width="1.51"/><path d="M885,192L865,99L783,208Z" fill="#e2e2de" stroke="#e2e2de" stroke-width="1.51"/><path d="M1068,71L865,99L992,209Z" fill="#dfdfdb" stroke="#dfdfdb" stroke-width="1.51"/><path d="M740,513L735,567L857,639Z" fill="#cdcec9" stroke="#cdcec9" stroke-width="1.51"/><path d="M610,441L735,567L740,513Z" fill="#d5d5d0" stroke="#d5d5d0" stroke-width="1.51"/><path d="M1164,175L1068,71L992,209Z" fill="#d8d9d5" stroke="#d8d9d5" stroke-width="1.51"/><path d="M1057,582L1187,645L1181,511Z" fill="#bcbdb9" stroke="#bcbdb9" stroke-width="1.51"/><path d="M1029,711L1187,645L1057,582Z" fill="#b8bab5" stroke="#b8bab5" stroke-width="1.51"/><path d="M857,639L1029,711L1057,582Z" fill="#bfc0bb" stroke="#bfc0bb" stroke-width="1.51"/><path d="M1164,175L1162,30L1068,71Z" fill="#d7d8d5" stroke="#d7d8d5" stroke-width="1.51"/><path d="M1325,347L1254,179L1143,325Z" fill="#c9cac6" stroke="#c9cac6" stroke-width="1.51"/><path d="M1325,347L1143,325L1181,511Z" fill="#c4c5c1" stroke="#c4c5c1" stroke-width="1.51"/><path d="M1327,478L1325,347L1181,511Z" fill="#bebfbb" stroke="#bebfbb" stroke-width="1.51"/><path d="M747,356L610,441L740,513Z" fill="#d9d9d4" stroke="#d9d9d4" stroke-width="1.51"/><path d="M783,208L643,358L747,356Z" fill="#e0e0db" stroke="#e0e0db" stroke-width="1.51"/><path d="M615,180L643,358L783,208Z" fill="#e4e4df" stroke="#e4e4df" stroke-width="1.51"/><path d="M1262,626L1327,478L1181,511Z" fill="#babbb6" stroke="#babbb6" stroke-width="1.51"/><path d="M865,99L763,105L783,208Z" fill="#e4e4e1" stroke="#e4e4e1" stroke-width="1.51"/><path d="M756,-30L763,105L865,99Z" fill="#e8e8e5" stroke="#e8e8e5" stroke-width="1.51"/><path d="M1187,645L1262,626L1181,511Z" fill="#b7b8b4" stroke="#b7b8b4" stroke-width="1.51"/><path d="M1175,764L1262,626L1187,645Z" fill="#aeb0ac" stroke="#aeb0ac" stroke-width="1.51"/><path d="M857,639L884,745L1029,711Z" fill="#bbbdb8" stroke="#bbbdb8" stroke-width="1.51"/><path d="M728,759L884,745L857,639Z" fill="#bdbfba" stroke="#bdbfba" stroke-width="1.51"/><path d="M643,358L610,441L747,356Z" fill="#ddddd8" stroke="#ddddd8" stroke-width="1.51"/><path d="M735,567L728,759L857,639Z" fill="#c5c6c1" stroke="#c5c6c1" stroke-width="1.51"/><path d="M1254,179L1251,107L1164,175Z" fill="#cfd0cd" stroke="#cfd0cd" stroke-width="1.51"/><path d="M1422,50L1251,107L1254,179Z" fill="#cccdca" stroke="#cccdca" stroke-width="1.51"/><path d="M1068,71L1024,-46L865,99Z" fill="#e2e2df" stroke="#e2e2df" stroke-width="1.51"/><path d="M1251,107L1162,30L1164,175Z" fill="#d3d4d1" stroke="#d3d4d1" stroke-width="1.51"/><path d="M763,105L615,180L783,208Z" fill="#e6e6e2" stroke="#e6e6e2" stroke-width="1.51"/><path d="M462,328L470,428L610,441Z" fill="#e1e1dc" stroke="#e1e1dc" stroke-width="1.51"/><path d="M1029,711L1175,764L1187,645Z" fill="#b0b2ad" stroke="#b0b2ad" stroke-width="1.51"/><path d="M1128,885L1175,764L1029,711Z" fill="#a9aba7" stroke="#a9aba7" stroke-width="1.51"/><path d="M1325,347L1407,298L1254,179Z" fill="#c4c6c1" stroke="#c4c6c1" stroke-width="1.51"/><path d="M1428,485L1407,298L1325,347Z" fill="#bbbdb9" stroke="#bbbdb9" stroke-width="1.51"/><path d="M1428,485L1325,347L1327,478Z" fill="#babbb7" stroke="#babbb7" stroke-width="1.51"/><path d="M1162,30L1024,-46L1068,71Z" fill="#dddddb" stroke="#dddddb" stroke-width="1.51"/><path d="M763,105L633,92L615,180Z" fill="#e9e9e6" stroke="#e9e9e6" stroke-width="1.51"/><path d="M1162,30L1166,-29L1024,-46Z" fill="#dbdcda" stroke="#dbdcda" stroke-width="1.51"/><path d="M1270,-84L1166,-29L1162,30Z" fill="#d6d7d5" stroke="#d6d7d5" stroke-width="1.51"/><path d="M1270,-84L1162,30L1251,107Z" fill="#d4d5d3" stroke="#d4d5d3" stroke-width="1.51"/><path d="M1460,640L1428,485L1327,478Z" fill="#b2b4af" stroke="#b2b4af" stroke-width="1.51"/><path d="M1460,640L1327,478L1262,626Z" fill="#b0b2ae" stroke="#b0b2ae" stroke-width="1.51"/><path d="M884,745L998,854L1029,711Z" fill="#b3b4b0" stroke="#b3b4b0" stroke-width="1.51"/><path d="M591,642L728,759L735,567Z" fill="#c8c9c4" stroke="#c8c9c4" stroke-width="1.51"/><path d="M756,-30L633,92L763,105Z" fill="#ebebe8" stroke="#ebebe8" stroke-width="1.51"/><path d="M797,879L901,839L884,745Z" fill="#b1b3af" stroke="#b1b3af" stroke-width="1.51"/><path d="M901,839L998,854L884,745Z" fill="#b0b2ae" stroke="#b0b2ae" stroke-width="1.51"/><path d="M937,-109L756,-30L865,99Z" fill="#e8e8e6" stroke="#e8e8e6" stroke-width="1.51"/><path d="M610,441L591,642L735,567Z" fill="#d4d4cf" stroke="#d4d4cf" stroke-width="1.51"/><path d="M448,579L591,642L610,441Z" fill="#d6d6d1" stroke="#d6d6d1" stroke-width="1.51"/><path d="M1024,-46L937,-109L865,99Z" fill="#e5e5e3" stroke="#e5e5e3" stroke-width="1.51"/><path d="M1027,-235L937,-109L1024,-46Z" fill="#e3e3e0" stroke="#e3e3e0" stroke-width="1.51"/><path d="M1175,764L1330,769L1262,626Z" fill="#a7aaa6" stroke="#a7aaa6" stroke-width="1.51"/><path d="M1277,842L1330,769L1175,764Z" fill="#a0a39f" stroke="#a0a39f" stroke-width="1.51"/><path d="M462,328L610,441L643,358Z" fill="#e1e1dc" stroke="#e1e1dc" stroke-width="1.51"/><path d="M462,328L643,358L615,180Z" fill="#e6e6e1" stroke="#e6e6e1" stroke-width="1.51"/><path d="M728,759L797,879L884,745Z" fill="#b6b8b4" stroke="#b6b8b4" stroke-width="1.51"/><path d="M591,642L645,777L728,759Z" fill="#c2c3bf" stroke="#c2c3bf" stroke-width="1.51"/><path d="M488,754L645,777L591,642Z" fill="#c4c6c1" stroke="#c4c6c1" stroke-width="1.51"/><path d="M998,854L1128,885L1029,711Z" fill="#a9aca8" stroke="#a9aca8" stroke-width="1.51"/><path d="M1041,1017L1128,885L998,854Z" fill="#a0a3a0" stroke="#a0a3a0" stroke-width="1.51"/><path d="M1407,298L1467,169L1254,179Z" fill="#c4c6c2" stroke="#c4c6c2" stroke-width="1.51"/><path d="M1534,190L1467,169L1407,298Z" fill="#bec1bd" stroke="#bec1bd" stroke-width="1.51"/><path d="M456,161L462,328L615,180Z" fill="#ebebe6" stroke="#ebebe6" stroke-width="1.51"/><path d="M645,777L797,879L728,759Z" fill="#b7b9b5" stroke="#b7b9b5" stroke-width="1.51"/><path d="M901,839L921,971L998,854Z" fill="#a9aba7" stroke="#a9aba7" stroke-width="1.51"/><path d="M1428,485L1528,328L1407,298Z" fill="#b8bab6" stroke="#b8bab6" stroke-width="1.51"/><path d="M1437,721L1460,640L1262,626Z" fill="#a6a9a4" stroke="#a6a9a4" stroke-width="1.51"/><path d="M1330,769L1437,721L1262,626Z" fill="#a4a6a3" stroke="#a4a6a3" stroke-width="1.51"/><path d="M1128,885L1277,842L1175,764Z" fill="#a0a3a0" stroke="#a0a3a0" stroke-width="1.51"/><path d="M1546,448L1528,328L1428,485Z" fill="#b3b5b1" stroke="#b3b5b1" stroke-width="1.51"/><path d="M1422,50L1270,-84L1251,107Z" fill="#cfd0cf" stroke="#cfd0cf" stroke-width="1.51"/><path d="M1166,-29L1127,-191L1024,-46Z" fill="#dcddda" stroke="#dcddda" stroke-width="1.51"/><path d="M1563,66L1422,50L1467,169Z" fill="#c3c5c2" stroke="#c3c5c2" stroke-width="1.51"/><path d="M1467,169L1422,50L1254,179Z" fill="#c7c9c6" stroke="#c7c9c6" stroke-width="1.51"/><path d="M1573,599L1546,448L1428,485Z" fill="#adafab" stroke="#adafab" stroke-width="1.51"/><path d="M1425,856L1437,721L1330,769Z" fill="#999c99" stroke="#999c99" stroke-width="1.51"/><path d="M1460,640L1573,599L1428,485Z" fill="#aaaca8" stroke="#aaaca8" stroke-width="1.51"/><path d="M470,428L448,579L610,441Z" fill="#ddddd8" stroke="#ddddd8" stroke-width="1.51"/><path d="M360,435L448,579L470,428Z" fill="#dfdfda" stroke="#dfdfda" stroke-width="1.51"/><path d="M633,92L456,161L615,180Z" fill="#ecece8" stroke="#ecece8" stroke-width="1.51"/><path d="M462,328L371,334L470,428Z" fill="#e5e5e0" stroke="#e5e5e0" stroke-width="1.51"/><path d="M448,56L456,161L633,92Z" fill="#efefec" stroke="#efefec" stroke-width="1.51"/><path d="M1678,173L1534,190L1528,328Z" fill="#b9bbb8" stroke="#b9bbb8" stroke-width="1.51"/><path d="M1528,328L1534,190L1407,298Z" fill="#bbbeba" stroke="#bbbeba" stroke-width="1.51"/><path d="M1270,-84L1127,-191L1166,-29Z" fill="#d7d8d6" stroke="#d7d8d6" stroke-width="1.51"/><path d="M788,1044L921,971L797,879Z" fill="#a5a8a5" stroke="#a5a8a5" stroke-width="1.51"/><path d="M797,879L921,971L901,839Z" fill="#abada9" stroke="#abada9" stroke-width="1.51"/><path d="M1128,885L1169,1019L1277,842Z" fill="#999c99" stroke="#999c99" stroke-width="1.51"/><path d="M756,-30L596,-64L633,92Z" fill="#eeeeec" stroke="#eeeeec" stroke-width="1.51"/><path d="M752,-200L596,-64L756,-30Z" fill="#ededeb" stroke="#ededeb" stroke-width="1.51"/><path d="M752,-200L756,-30L937,-109Z" fill="#e9e9e7" stroke="#e9e9e7" stroke-width="1.51"/><path d="M1027,-235L882,-217L937,-109Z" fill="#e5e5e3" stroke="#e5e5e3" stroke-width="1.51"/><path d="M456,161L392,243L462,328Z" fill="#ecece7" stroke="#ecece7" stroke-width="1.51"/><path d="M359,51L392,243L456,161Z" fill="#f0f0ec" stroke="#f0f0ec" stroke-width="1.51"/><path d="M392,243L371,334L462,328Z" fill="#e9e9e5" stroke="#e9e9e5" stroke-width="1.51"/><path d="M1127,-191L1027,-235L1024,-46Z" fill="#dfdfdd" stroke="#dfdfdd" stroke-width="1.51"/><path d="M1270,-84L1289,-186L1127,-191Z" fill="#d5d6d4" stroke="#d5d6d4" stroke-width="1.51"/><path d="M1127,-191L1289,-186L1027,-235Z" fill="#d9dad8" stroke="#d9dad8" stroke-width="1.51"/><path d="M1422,50L1386,-93L1270,-84Z" fill="#cdcecd" stroke="#cdcecd" stroke-width="1.51"/><path d="M1584,-101L1386,-93L1422,50Z" fill="#c7c9c8" stroke="#c7c9c8" stroke-width="1.51"/><path d="M448,579L488,754L591,642Z" fill="#cdcec9" stroke="#cdcec9" stroke-width="1.51"/><path d="M645,777L595,871L797,879Z" fill="#b5b7b3" stroke="#b5b7b3" stroke-width="1.51"/><path d="M334,638L488,754L448,579Z" fill="#cfd0cc" stroke="#cfd0cc" stroke-width="1.51"/><path d="M1595,741L1573,599L1460,640Z" fill="#9ea19e" stroke="#9ea19e" stroke-width="1.51"/><path d="M1678,173L1563,66L1534,190Z" fill="#bbbebb" stroke="#bbbebb" stroke-width="1.51"/><path d="M488,754L595,871L645,777Z" fill="#bcbeba" stroke="#bcbeba" stroke-width="1.51"/><path d="M882,-217L752,-200L937,-109Z" fill="#e8e8e6" stroke="#e8e8e6" stroke-width="1.51"/><path d="M371,334L360,435L470,428Z" fill="#e4e4df" stroke="#e4e4df" stroke-width="1.51"/><path d="M499,-88L448,56L596,-64Z" fill="#f3f3f1" stroke="#f3f3f1" stroke-width="1.51"/><path d="M596,-64L448,56L633,92Z" fill="#f1f1ee" stroke="#f1f1ee" stroke-width="1.51"/><path d="M921,971L1041,1017L998,854Z" fill="#a2a4a1" stroke="#a2a4a1" stroke-width="1.51"/><path d="M1039,1121L1041,1017L921,971Z" fill="#999c99" stroke="#999c99" stroke-width="1.51"/><path d="M1386,-93L1289,-186L1270,-84Z" fill="#d0d1d0" stroke="#d0d1d0" stroke-width="1.51"/><path d="M1437,721L1595,741L1460,640Z" fill="#9c9f9c" stroke="#9c9f9c" stroke-width="1.51"/><path d="M1277,842L1425,856L1330,769Z" fill="#989c99" stroke="#989c99" stroke-width="1.51"/><path d="M1311,1030L1425,856L1277,842Z" fill="#919592" stroke="#919592" stroke-width="1.51"/><path d="M1534,190L1563,66L1467,169Z" fill="#bfc1be" stroke="#bfc1be" stroke-width="1.51"/><path d="M1386,-93L1451,-190L1289,-186Z" fill="#cccecc" stroke="#cccecc" stroke-width="1.51"/><path d="M1657,376L1528,328L1546,448Z" fill="#b1b3b0" stroke="#b1b3b0" stroke-width="1.51"/><path d="M1041,1017L1169,1019L1128,885Z" fill="#989b98" stroke="#989b98" stroke-width="1.51"/><path d="M1743,483L1657,376L1546,448Z" fill="#abadaa" stroke="#abadaa" stroke-width="1.51"/><path d="M488,754L516,864L595,871Z" fill="#bbbdb9" stroke="#bbbdb9" stroke-width="1.51"/><path d="M661,1048L788,1044L797,879Z" fill="#a6a9a5" stroke="#a6a9a5" stroke-width="1.51"/><path d="M354,774L516,864L488,754Z" fill="#c0c2be" stroke="#c0c2be" stroke-width="1.51"/><path d="M511,-230L499,-88L596,-64Z" fill="#f2f2f0" stroke="#f2f2f0" stroke-width="1.51"/><path d="M661,1048L797,879L595,871Z" fill="#adafac" stroke="#adafac" stroke-width="1.51"/><path d="M1041,1017L1149,1107L1169,1019Z" fill="#929592" stroke="#929592" stroke-width="1.51"/><path d="M234,464L334,638L360,435Z" fill="#dfdfdb" stroke="#dfdfdb" stroke-width="1.51"/><path d="M360,435L334,638L448,579Z" fill="#dbdbd7" stroke="#dbdbd7" stroke-width="1.51"/><path d="M752,-200L640,-230L596,-64Z" fill="#eeeeec" stroke="#eeeeec" stroke-width="1.51"/><path d="M882,-217L640,-230L752,-200Z" fill="#ebebe9" stroke="#ebebe9" stroke-width="1.51"/><path d="M1027,-235L640,-230L882,-217Z" fill="#e8e8e6" stroke="#e8e8e6" stroke-width="1.51"/><path d="M1573,599L1743,483L1546,448Z" fill="#a8aaa6" stroke="#a8aaa6" stroke-width="1.51"/><path d="M1425,856L1595,741L1437,721Z" fill="#959996" stroke="#959996" stroke-width="1.51"/><path d="M334,-62L359,51L448,56Z" fill="#f6f6f4" stroke="#f6f6f4" stroke-width="1.51"/><path d="M448,56L359,51L456,161Z" fill="#f2f2ef" stroke="#f2f2ef" stroke-width="1.51"/><path d="M247,196L241,363L371,334Z" fill="#ecece8" stroke="#ecece8" stroke-width="1.51"/><path d="M371,334L241,363L360,435Z" fill="#e7e7e3" stroke="#e7e7e3" stroke-width="1.51"/><path d="M334,-62L448,56L499,-88Z" fill="#f5f5f3" stroke="#f5f5f3" stroke-width="1.51"/><path d="M1657,376L1678,173L1528,328Z" fill="#b4b6b2" stroke="#b4b6b2" stroke-width="1.51"/><path d="M1425,856L1609,862L1595,741Z" fill="#8e928f" stroke="#8e928f" stroke-width="1.51"/><path d="M1169,1019L1311,1030L1277,842Z" fill="#929592" stroke="#929592" stroke-width="1.51"/><path d="M1149,1107L1311,1030L1169,1019Z" fill="#8c908d" stroke="#8c908d" stroke-width="1.51"/><path d="M1584,-101L1422,50L1563,66Z" fill="#c4c6c5" stroke="#c4c6c5" stroke-width="1.51"/><path d="M1584,-101L1451,-190L1386,-93Z" fill="#c7c9c7" stroke="#c7c9c7" stroke-width="1.51"/><path d="M1289,-186L1451,-190L1027,-235Z" fill="#d3d4d3" stroke="#d3d4d3" stroke-width="1.51"/><path d="M848,1148L1039,1121L921,971Z" fill="#999c99" stroke="#999c99" stroke-width="1.51"/><path d="M788,1044L848,1148L921,971Z" fill="#9ea09d" stroke="#9ea09d" stroke-width="1.51"/><path d="M470,1053L661,1048L595,871Z" fill="#abaeab" stroke="#abaeab" stroke-width="1.51"/><path d="M470,1053L595,871L516,864Z" fill="#b2b5b1" stroke="#b2b5b1" stroke-width="1.51"/><path d="M1039,1121L1149,1107L1041,1017Z" fill="#919492" stroke="#919492" stroke-width="1.51"/><path d="M334,638L354,774L488,754Z" fill="#c9cac7" stroke="#c9cac7" stroke-width="1.51"/><path d="M247,196L371,334L392,243Z" fill="#edede9" stroke="#edede9" stroke-width="1.51"/><path d="M334,638L242,721L354,774Z" fill="#cccdca" stroke="#cccdca" stroke-width="1.51"/><path d="M1595,741L1701,619L1573,599Z" fill="#9b9e9b" stroke="#9b9e9b" stroke-width="1.51"/><path d="M1657,376L1824,237L1678,173Z" fill="#b1b3b0" stroke="#b1b3b0" stroke-width="1.51"/><path d="M241,363L234,464L360,435Z" fill="#e6e6e2" stroke="#e6e6e2" stroke-width="1.51"/><path d="M74,361L93,487L234,464Z" fill="#e8e8e5" stroke="#e8e8e5" stroke-width="1.51"/><path d="M359,51L247,196L392,243Z" fill="#f1f1ee" stroke="#f1f1ee" stroke-width="1.51"/><path d="M1701,619L1743,483L1573,599Z" fill="#a1a4a0" stroke="#a1a4a0" stroke-width="1.51"/><path d="M1673,35L1584,-101L1563,66Z" fill="#c0c2c1" stroke="#c0c2c1" stroke-width="1.51"/><path d="M1678,173L1673,35L1563,66Z" fill="#bbbdbb" stroke="#bbbdbb" stroke-width="1.51"/><path d="M1685,-49L1673,35L1805,-50Z" fill="#babdbc" stroke="#babdbc" stroke-width="1.51"/><path d="M640,-230L511,-230L596,-64Z" fill="#f1f1ee" stroke="#f1f1ee" stroke-width="1.51"/><path d="M359,51L211,106L247,196Z" fill="#f4f4f2" stroke="#f4f4f2" stroke-width="1.51"/><path d="M338,-233L511,-230L640,-230Z" fill="#f4f4f1" stroke="#f4f4f1" stroke-width="1.51"/><path d="M1311,1030L1387,1047L1425,856Z" fill="#898e8b" stroke="#898e8b" stroke-width="1.51"/><path d="M1595,741L1714,713L1701,619Z" fill="#959895" stroke="#959895" stroke-width="1.51"/><path d="M1329,1182L1387,1047L1311,1030Z" fill="#838785" stroke="#838785" stroke-width="1.51"/><path d="M1039,1121L1002,1243L1149,1107Z" fill="#929593" stroke="#929593" stroke-width="1.51"/><path d="M769,1179L848,1148L788,1044Z" fill="#9d9f9d" stroke="#9d9f9d" stroke-width="1.51"/><path d="M1598,1001L1609,862L1425,856Z" fill="#878b89" stroke="#878b89" stroke-width="1.51"/><path d="M338,-233L334,-62L499,-88Z" fill="#f6f6f4" stroke="#f6f6f4" stroke-width="1.51"/><path d="M234,464L230,619L334,638Z" fill="#dbdbd8" stroke="#dbdbd8" stroke-width="1.51"/><path d="M1826,583L1821,485L1743,483Z" fill="#9fa29e" stroke="#9fa29e" stroke-width="1.51"/><path d="M1609,862L1714,713L1595,741Z" fill="#8e9290" stroke="#8e9290" stroke-width="1.51"/><path d="M224,882L352,895L354,774Z" fill="#bec0bd" stroke="#bec0bd" stroke-width="1.51"/><path d="M354,774L352,895L516,864Z" fill="#bcbebc" stroke="#bcbebc" stroke-width="1.51"/><path d="M661,1048L769,1179L788,1044Z" fill="#9fa19e" stroke="#9fa19e" stroke-width="1.51"/><path d="M230,619L242,721L334,638Z" fill="#d2d3d0" stroke="#d2d3d0" stroke-width="1.51"/><path d="M1673,35L1685,-49L1584,-101Z" fill="#bec0bf" stroke="#bec0bf" stroke-width="1.51"/><path d="M1584,-101L1595,-177L1451,-190Z" fill="#c3c6c4" stroke="#c3c6c4" stroke-width="1.51"/><path d="M1866,56L1673,35L1678,173Z" fill="#b6b9b7" stroke="#b6b9b7" stroke-width="1.51"/><path d="M74,361L234,464L241,363Z" fill="#e9e9e5" stroke="#e9e9e5" stroke-width="1.51"/><path d="M234,464L94,573L230,619Z" fill="#dfe0dc" stroke="#dfe0dc" stroke-width="1.51"/><path d="M221,-63L211,106L359,51Z" fill="#f8f8f6" stroke="#f8f8f6" stroke-width="1.51"/><path d="M610,1168L769,1179L661,1048Z" fill="#a1a3a0" stroke="#a1a3a0" stroke-width="1.51"/><path d="M848,1148L1002,1243L1039,1121Z" fill="#989b98" stroke="#989b98" stroke-width="1.51"/><path d="M1685,-49L1595,-177L1584,-101Z" fill="#bfc1c0" stroke="#bfc1c0" stroke-width="1.51"/><path d="M1451,-190L1687,-227L1027,-235Z" fill="#cbcdcb" stroke="#cbcdcb" stroke-width="1.51"/><path d="M1743,483L1866,295L1657,376Z" fill="#a9aba8" stroke="#a9aba8" stroke-width="1.51"/><path d="M1826,583L1743,483L1701,619Z" fill="#9ea09d" stroke="#9ea09d" stroke-width="1.51"/><path d="M352,895L470,1053L516,864Z" fill="#b3b6b3" stroke="#b3b6b3" stroke-width="1.51"/><path d="M1866,295L1824,237L1657,376Z" fill="#abaeab" stroke="#abaeab" stroke-width="1.51"/><path d="M918,1322L1002,1243L848,1148Z" fill="#999c99" stroke="#999c99" stroke-width="1.51"/><path d="M1149,1107L1329,1182L1311,1030Z" fill="#878b89" stroke="#878b89" stroke-width="1.51"/><path d="M1714,713L1826,583L1701,619Z" fill="#979997" stroke="#979997" stroke-width="1.51"/><path d="M1821,485L1866,295L1743,483Z" fill="#a4a7a3" stroke="#a4a7a3" stroke-width="1.51"/><path d="M1839,768L1826,583L1714,713Z" fill="#8f9391" stroke="#8f9391" stroke-width="1.51"/><path d="M1609,862L1714,903L1714,713Z" fill="#878b89" stroke="#878b89" stroke-width="1.51"/><path d="M1387,1047L1598,1001L1425,856Z" fill="#858a87" stroke="#858a87" stroke-width="1.51"/><path d="M1607,1125L1598,1001L1387,1047Z" fill="#7b807e" stroke="#7b807e" stroke-width="1.51"/><path d="M1302,1242L1329,1182L1149,1107Z" fill="#878b89" stroke="#878b89" stroke-width="1.51"/><path d="M769,1179L788,1275L848,1148Z" fill="#9d9f9d" stroke="#9d9f9d" stroke-width="1.51"/><path d="M470,1053L610,1168L661,1048Z" fill="#a3a6a3" stroke="#a3a6a3" stroke-width="1.51"/><path d="M1953,297L1866,295L1960,438Z" fill="#a2a5a2" stroke="#a2a5a2" stroke-width="1.51"/><path d="M1866,56L1805,-50L1673,35Z" fill="#b7b9b9" stroke="#b7b9b9" stroke-width="1.51"/><path d="M334,-62L221,-63L359,51Z" fill="#f8f8f6" stroke="#f8f8f6" stroke-width="1.51"/><path d="M243,-231L221,-63L334,-62Z" fill="#f9f9f8" stroke="#f9f9f8" stroke-width="1.51"/><path d="M352,895L326,975L470,1053Z" fill="#b2b4b1" stroke="#b2b4b1" stroke-width="1.51"/><path d="M470,1053L482,1138L610,1168Z" fill="#a5a8a5" stroke="#a5a8a5" stroke-width="1.51"/><path d="M224,882L326,975L352,895Z" fill="#b8bbb8" stroke="#b8bbb8" stroke-width="1.51"/><path d="M1027,-235L338,-233L640,-230Z" fill="#eeeeec" stroke="#eeeeec" stroke-width="1.51"/><path d="M511,-230L338,-233L499,-88Z" fill="#f5f5f3" stroke="#f5f5f3" stroke-width="1.51"/><path d="M1598,1001L1714,903L1609,862Z" fill="#818684" stroke="#818684" stroke-width="1.51"/><path d="M230,619L113,773L242,721Z" fill="#cfd0cd" stroke="#cfd0cd" stroke-width="1.51"/><path d="M242,721L224,882L354,774Z" fill="#c5c6c3" stroke="#c5c6c3" stroke-width="1.51"/><path d="M74,361L241,363L247,196Z" fill="#eeeeeb" stroke="#eeeeeb" stroke-width="1.51"/><path d="M74,361L247,196L72,188Z" fill="#f2f2ef" stroke="#f2f2ef" stroke-width="1.51"/><path d="M1598,1001L1697,1003L1714,903Z" fill="#7c807f" stroke="#7c807f" stroke-width="1.51"/><path d="M1329,1182L1403,1186L1387,1047Z" fill="#818684" stroke="#818684" stroke-width="1.51"/><path d="M1400,1267L1403,1186L1329,1182Z" fill="#818683" stroke="#818683" stroke-width="1.51"/><path d="M312,1177L482,1138L470,1053Z" fill="#a8aba8" stroke="#a8aba8" stroke-width="1.51"/><path d="M326,975L312,1177L470,1053Z" fill="#aaadaa" stroke="#aaadaa" stroke-width="1.51"/><path d="M113,773L224,882L242,721Z" fill="#c6c8c5" stroke="#c6c8c5" stroke-width="1.51"/><path d="M93,487L94,573L234,464Z" fill="#e4e4e0" stroke="#e4e4e0" stroke-width="1.51"/><path d="M72,188L247,196L211,106Z" fill="#f4f4f2" stroke="#f4f4f2" stroke-width="1.51"/><path d="M93,487L-44,489L94,573Z" fill="#e5e5e2" stroke="#e5e5e2" stroke-width="1.51"/><path d="M1183,1302L1302,1242L1149,1107Z" fill="#8a8e8b" stroke="#8a8e8b" stroke-width="1.51"/><path d="M649,1289L788,1275L769,1179Z" fill="#9fa19e" stroke="#9fa19e" stroke-width="1.51"/><path d="M649,1289L769,1179L610,1168Z" fill="#a1a3a0" stroke="#a1a3a0" stroke-width="1.51"/><path d="M1183,1302L1149,1107L1002,1243Z" fill="#8f9390" stroke="#8f9390" stroke-width="1.51"/><path d="M1866,56L1678,173L1824,237Z" fill="#b1b4b2" stroke="#b1b4b2" stroke-width="1.51"/><path d="M1685,-49L1687,-227L1595,-177Z" fill="#bec0bf" stroke="#bec0bf" stroke-width="1.51"/><path d="M101,-71L103,100L221,-63Z" fill="#fcfcfb" stroke="#fcfcfb" stroke-width="1.51"/><path d="M221,-63L103,100L211,106Z" fill="#f9f9f7" stroke="#f9f9f7" stroke-width="1.51"/><path d="M1595,-177L1687,-227L1451,-190Z" fill="#c1c3c2" stroke="#c1c3c2" stroke-width="1.51"/><path d="M1805,-50L1687,-227L1685,-49Z" fill="#babcbb" stroke="#babcbb" stroke-width="1.51"/><path d="M103,100L72,188L211,106Z" fill="#f7f7f5" stroke="#f7f7f5" stroke-width="1.51"/><path d="M1960,438L1866,295L1821,485Z" fill="#a1a3a0" stroke="#a1a3a0" stroke-width="1.51"/><path d="M1714,903L1839,768L1714,713Z" fill="#878b89" stroke="#878b89" stroke-width="1.51"/><path d="M1994,236L1866,56L1824,237Z" fill="#abaeac" stroke="#abaeac" stroke-width="1.51"/><path d="M918,1322L1183,1302L1002,1243Z" fill="#949794" stroke="#949794" stroke-width="1.51"/><path d="M788,1275L918,1322L848,1148Z" fill="#9b9e9b" stroke="#9b9e9b" stroke-width="1.51"/><path d="M1714,903L1810,910L1839,768Z" fill="#808482" stroke="#808482" stroke-width="1.51"/><path d="M1607,1125L1697,1003L1598,1001Z" fill="#787c7a" stroke="#787c7a" stroke-width="1.51"/><path d="M224,882L256,1009L326,975Z" fill="#b6b8b6" stroke="#b6b8b6" stroke-width="1.51"/><path d="M94,573L113,773L230,619Z" fill="#d5d6d3" stroke="#d5d6d3" stroke-width="1.51"/><path d="M129,975L256,1009L224,882Z" fill="#b7bab8" stroke="#b7bab8" stroke-width="1.51"/><path d="M338,-233L243,-231L334,-62Z" fill="#f8f8f6" stroke="#f8f8f6" stroke-width="1.51"/><path d="M510,1292L649,1289L610,1168Z" fill="#a3a6a3" stroke="#a3a6a3" stroke-width="1.51"/><path d="M788,1275L649,1289L918,1322Z" fill="#9da09d" stroke="#9da09d" stroke-width="1.51"/><path d="M510,1292L610,1168L482,1138Z" fill="#a5a7a5" stroke="#a5a7a5" stroke-width="1.51"/><path d="M1403,1186L1607,1125L1387,1047Z" fill="#7d817f" stroke="#7d817f" stroke-width="1.51"/><path d="M1587,1257L1607,1125L1403,1186Z" fill="#797e7c" stroke="#797e7c" stroke-width="1.51"/><path d="M1400,1267L1329,1182L1302,1242Z" fill="#838785" stroke="#838785" stroke-width="1.51"/><path d="M1866,295L1994,236L1824,237Z" fill="#a8aba8" stroke="#a8aba8" stroke-width="1.51"/><path d="M1960,438L1821,485L1951,614Z" fill="#9a9d9a" stroke="#9a9d9a" stroke-width="1.51"/><path d="M1951,614L1821,485L1826,583Z" fill="#999b98" stroke="#999b98" stroke-width="1.51"/><path d="M1183,1302L1400,1267L1302,1242Z" fill="#858987" stroke="#858987" stroke-width="1.51"/><path d="M1933,720L1951,614L1826,583Z" fill="#8f9290" stroke="#8f9290" stroke-width="1.51"/><path d="M1697,1003L1810,910L1714,903Z" fill="#7b807e" stroke="#7b807e" stroke-width="1.51"/><path d="M1839,998L1810,910L1697,1003Z" fill="#777b7a" stroke="#777b7a" stroke-width="1.51"/><path d="M113,773L127,876L224,882Z" fill="#c2c4c2" stroke="#c2c4c2" stroke-width="1.51"/><path d="M1933,720L1826,583L1839,768Z" fill="#8c8f8c" stroke="#8c8f8c" stroke-width="1.51"/><path d="M243,-231L101,-71L221,-63Z" fill="#fbfbfa" stroke="#fbfbfa" stroke-width="1.51"/><path d="M-74,78L-36,238L72,188Z" fill="#f8f8f7" stroke="#f8f8f7" stroke-width="1.51"/><path d="M1940,903L1933,720L1839,768Z" fill="#808482" stroke="#808482" stroke-width="1.51"/><path d="M2119,307L1994,236L1953,297Z" fill="#a6a9a6" stroke="#a6a9a6" stroke-width="1.51"/><path d="M1953,297L1994,236L1866,295Z" fill="#a6a9a6" stroke="#a6a9a6" stroke-width="1.51"/><path d="M1866,56L1951,37L1805,-50Z" fill="#b2b5b4" stroke="#b2b5b4" stroke-width="1.51"/><path d="M2073,110L1994,236L2137,161Z" fill="#aaadab" stroke="#aaadab" stroke-width="1.51"/><path d="M1994,236L1951,37L1866,56Z" fill="#acafad" stroke="#acafad" stroke-width="1.51"/><path d="M1805,-50L1858,-197L1687,-227Z" fill="#b7bab9" stroke="#b7bab9" stroke-width="1.51"/><path d="M649,1289L510,1292L918,1322Z" fill="#a0a3a0" stroke="#a0a3a0" stroke-width="1.51"/><path d="M366,1271L510,1292L482,1138Z" fill="#a7aaa7" stroke="#a7aaa7" stroke-width="1.51"/><path d="M312,1177L326,975L256,1009Z" fill="#adafad" stroke="#adafad" stroke-width="1.51"/><path d="M-74,78L72,188L103,100Z" fill="#f9f9f8" stroke="#f9f9f8" stroke-width="1.51"/><path d="M72,188L-36,238L74,361Z" fill="#f4f4f1" stroke="#f4f4f1" stroke-width="1.51"/><path d="M74,361L-44,489L93,487Z" fill="#e9e9e7" stroke="#e9e9e7" stroke-width="1.51"/><path d="M94,573L-64,733L113,773Z" fill="#d3d5d2" stroke="#d3d5d2" stroke-width="1.51"/><path d="M113,773L-57,865L127,876Z" fill="#c4c6c5" stroke="#c4c6c5" stroke-width="1.51"/><path d="M-58,375L-44,489L74,361Z" fill="#ececea" stroke="#ececea" stroke-width="1.51"/><path d="M251,1175L312,1177L256,1009Z" fill="#abaeac" stroke="#abaeac" stroke-width="1.51"/><path d="M127,876L129,975L224,882Z" fill="#bcbebc" stroke="#bcbebc" stroke-width="1.51"/><path d="M-57,865L129,975L127,876Z" fill="#bec1bf" stroke="#bec1bf" stroke-width="1.51"/><path d="M-36,238L-58,375L74,361Z" fill="#f1f1ef" stroke="#f1f1ef" stroke-width="1.51"/><path d="M1984,-43L1858,-197L1805,-50Z" fill="#b2b5b4" stroke="#b2b5b4" stroke-width="1.51"/><path d="M1716,1164L1839,998L1697,1003Z" fill="#717675" stroke="#717675" stroke-width="1.51"/><path d="M1810,910L1940,903L1839,768Z" fill="#7c817f" stroke="#7c817f" stroke-width="1.51"/><path d="M1716,1164L1697,1003L1607,1125Z" fill="#737876" stroke="#737876" stroke-width="1.51"/><path d="M1721,1316L1587,1257L1400,1267Z" fill="#787c7b" stroke="#787c7b" stroke-width="1.51"/><path d="M1400,1267L1587,1257L1403,1186Z" fill="#7d817f" stroke="#7d817f" stroke-width="1.51"/><path d="M1587,1257L1716,1164L1607,1125Z" fill="#757978" stroke="#757978" stroke-width="1.51"/><path d="M129,975L251,1175L256,1009Z" fill="#aeb1af" stroke="#aeb1af" stroke-width="1.51"/><path d="M312,1177L366,1271L482,1138Z" fill="#a9aba9" stroke="#a9aba9" stroke-width="1.51"/><path d="M251,1175L366,1271L312,1177Z" fill="#aaadab" stroke="#aaadab" stroke-width="1.51"/><path d="M1951,37L1984,-43L1805,-50Z" fill="#b1b4b3" stroke="#b1b4b3" stroke-width="1.51"/><path d="M2073,110L1984,-43L1951,37Z" fill="#afb2b1" stroke="#afb2b1" stroke-width="1.51"/><path d="M2119,307L1953,297L1960,438Z" fill="#a2a5a2" stroke="#a2a5a2" stroke-width="1.51"/><path d="M2087,702L2102,615L1951,614Z" fill="#8e918f" stroke="#8e918f" stroke-width="1.51"/><path d="M1839,998L1940,903L1810,910Z" fill="#767a79" stroke="#767a79" stroke-width="1.51"/><path d="M1958,966L1940,903L1839,998Z" fill="#727776" stroke="#727776" stroke-width="1.51"/><path d="M-44,489L-85,567L94,573Z" fill="#e4e4e2" stroke="#e4e4e2" stroke-width="1.51"/><path d="M-193,562L-85,567L-214,512Z" fill="#e4e4e2" stroke="#e4e4e2" stroke-width="1.51"/><path d="M-47,-64L-74,78L103,100Z" fill="#fdfdfd" stroke="#fdfdfd" stroke-width="1.51"/><path d="M243,-231L62,-214L101,-71Z" fill="#fcfcfb" stroke="#fcfcfb" stroke-width="1.51"/><path d="M-58,375L-176,353L-44,489Z" fill="#ececea" stroke="#ececea" stroke-width="1.51"/><path d="M-36,238L-176,353L-58,375Z" fill="#f1f1ef" stroke="#f1f1ef" stroke-width="1.51"/><path d="M-47,-64L103,100L101,-71Z" fill="#fefefd" stroke="#fefefd" stroke-width="1.51"/><path d="M-85,567L-64,733L94,573Z" fill="#dbddda" stroke="#dbddda" stroke-width="1.51"/><path d="M46,1135L177,1245L251,1175Z" fill="#adb0ae" stroke="#adb0ae" stroke-width="1.51"/><path d="M2119,307L1960,438L2145,467Z" fill="#a0a29f" stroke="#a0a29f" stroke-width="1.51"/><path d="M1994,236L2073,110L1951,37Z" fill="#acafad" stroke="#acafad" stroke-width="1.51"/><path d="M2132,-217L1950,-195L1984,-43Z" fill="#b0b3b3" stroke="#b0b3b3" stroke-width="1.51"/><path d="M1984,-43L1950,-195L1858,-197Z" fill="#b0b3b3" stroke="#b0b3b3" stroke-width="1.51"/><path d="M1858,-197L1950,-195L1687,-227Z" fill="#b5b8b6" stroke="#b5b8b6" stroke-width="1.51"/><path d="M-43,-158L-47,-64L101,-71Z" fill="#ffffff" stroke="#ffffff" stroke-width="1.51"/><path d="M2087,702L1951,614L1933,720Z" fill="#8a8e8c" stroke="#8a8e8c" stroke-width="1.51"/><path d="M1941,1116L1958,966L1839,998Z" fill="#6c7170" stroke="#6c7170" stroke-width="1.51"/><path d="M2102,615L1960,438L1951,614Z" fill="#979996" stroke="#979996" stroke-width="1.51"/><path d="M2087,702L1933,720L1940,903Z" fill="#818583" stroke="#818583" stroke-width="1.51"/><path d="M2142,869L2087,702L1940,903Z" fill="#7d817f" stroke="#7d817f" stroke-width="1.51"/><path d="M-167,731L-57,865L-64,733Z" fill="#cccdcc" stroke="#cccdcc" stroke-width="1.51"/><path d="M-64,733L-57,865L113,773Z" fill="#caccca" stroke="#caccca" stroke-width="1.51"/><path d="M-74,78L-160,220L-36,238Z" fill="#f8f8f6" stroke="#f8f8f6" stroke-width="1.51"/><path d="M-85,567L-167,731L-64,733Z" fill="#d6d7d5" stroke="#d6d7d5" stroke-width="1.51"/><path d="M-177,60L-160,220L-74,78Z" fill="#fafaf9" stroke="#fafaf9" stroke-width="1.51"/><path d="M2142,869L2145,467L2102,615Z" fill="#8d918e" stroke="#8d918e" stroke-width="1.51"/><path d="M2102,615L2145,467L1960,438Z" fill="#9a9d9a" stroke="#9a9d9a" stroke-width="1.51"/><path d="M-47,-64L-177,60L-74,78Z" fill="#fefefe" stroke="#fefefe" stroke-width="1.51"/><path d="M62,-214L-43,-158L101,-71Z" fill="#fefefe" stroke="#fefefe" stroke-width="1.51"/><path d="M-160,220L-176,353L-36,238Z" fill="#f4f4f2" stroke="#f4f4f2" stroke-width="1.51"/><path d="M2073,110L2123,-21L1984,-43Z" fill="#b0b3b2" stroke="#b0b3b2" stroke-width="1.51"/><path d="M2119,307L2137,161L1994,236Z" fill="#a8aba8" stroke="#a8aba8" stroke-width="1.51"/><path d="M2145,467L2137,161L2119,307Z" fill="#a4a7a4" stroke="#a4a7a4" stroke-width="1.51"/><path d="M1716,1164L1862,1169L1839,998Z" fill="#6d7271" stroke="#6d7271" stroke-width="1.51"/><path d="M1958,966L2142,869L1940,903Z" fill="#757a78" stroke="#757a78" stroke-width="1.51"/><path d="M1860,1251L1862,1169L1716,1164Z" fill="#6d7170" stroke="#6d7170" stroke-width="1.51"/><path d="M46,1135L251,1175L129,975Z" fill="#aeb0af" stroke="#aeb0af" stroke-width="1.51"/><path d="M251,1175L177,1245L366,1271Z" fill="#abaeac" stroke="#abaeac" stroke-width="1.51"/><path d="M366,1271L46,1292L510,1292Z" fill="#aaadab" stroke="#aaadab" stroke-width="1.51"/><path d="M1587,1257L1721,1316L1716,1164Z" fill="#737876" stroke="#737876" stroke-width="1.51"/><path d="M1183,1302L1721,1316L1400,1267Z" fill="#7e8381" stroke="#7e8381" stroke-width="1.51"/><path d="M918,1322L1721,1316L1183,1302Z" fill="#878a88" stroke="#878a88" stroke-width="1.51"/><path d="M-214,512L-85,567L-44,489Z" fill="#e6e6e3" stroke="#e6e6e3" stroke-width="1.51"/><path d="M1989,1267L1941,1116L1862,1169Z" fill="#686d6c" stroke="#686d6c" stroke-width="1.51"/><path d="M1862,1169L1941,1116L1839,998Z" fill="#6a6e6d" stroke="#6a6e6d" stroke-width="1.51"/><path d="M-38,1032L46,1135L129,975Z" fill="#b2b5b4" stroke="#b2b5b4" stroke-width="1.51"/><path d="M-38,1032L129,975L-57,865Z" fill="#bbbebc" stroke="#bbbebc" stroke-width="1.51"/><path d="M-193,562L-167,731L-85,567Z" fill="#dcddda" stroke="#dcddda" stroke-width="1.51"/><path d="M2137,161L2123,-21L2073,110Z" fill="#adb0af" stroke="#adb0af" stroke-width="1.51"/><path d="M-176,353L-214,512L-44,489Z" fill="#eaeae7" stroke="#eaeae7" stroke-width="1.51"/><path d="M-160,220L-177,60L-176,353Z" fill="#f7f7f5" stroke="#f7f7f5" stroke-width="1.51"/><path d="M-188,-54L-177,60L-47,-64Z" fill="#ffffff" stroke="#ffffff" stroke-width="1.51"/><path d="M-193,562L-214,512L-167,731Z" fill="#dedfdd" stroke="#dedfdd" stroke-width="1.51"/><path d="M-177,60L-214,512L-176,353Z" fill="#f2f2f0" stroke="#f2f2f0" stroke-width="1.51"/><path d="M-163,919L-38,1032L-57,865Z" fill="#bdbfbe" stroke="#bdbfbe" stroke-width="1.51"/><path d="M1721,1316L1860,1251L1716,1164Z" fill="#6f7472" stroke="#6f7472" stroke-width="1.51"/><path d="M-43,-158L-188,-54L-47,-64Z" fill="#ffffff" stroke="#ffffff" stroke-width="1.51"/><path d="M-177,60L-188,-54L-214,512Z" fill="#f8f8f6" stroke="#f8f8f6" stroke-width="1.51"/><path d="M2087,702L2142,869L2102,615Z" fill="#858987" stroke="#858987" stroke-width="1.51"/><path d="M2123,1033L2142,869L1958,966Z" fill="#727675" stroke="#727675" stroke-width="1.51"/><path d="M2123,1033L1958,966L1941,1116Z" fill="#6b706f" stroke="#6b706f" stroke-width="1.51"/><path d="M-38,1032L-58,1101L46,1135Z" fill="#b0b3b3" stroke="#b0b3b3" stroke-width="1.51"/><path d="M46,1135L46,1292L177,1245Z" fill="#afb1b0" stroke="#afb1b0" stroke-width="1.51"/><path d="M-203,999L-58,1101L-38,1032Z" fill="#b4b6b5" stroke="#b4b6b5" stroke-width="1.51"/><path d="M-203,999L-163,919L-167,731Z" fill="#c2c4c3" stroke="#c2c4c3" stroke-width="1.51"/><path d="M-167,731L-163,919L-57,865Z" fill="#c6c8c7" stroke="#c6c8c7" stroke-width="1.51"/><path d="M2137,161L2132,-217L2123,-21Z" fill="#b0b3b3" stroke="#b0b3b3" stroke-width="1.51"/><path d="M2123,-21L2132,-217L1984,-43Z" fill="#b0b3b3" stroke="#b0b3b3" stroke-width="1.51"/><path d="M1950,-195L2132,-217L1687,-227Z" fill="#b0b3b3" stroke="#b0b3b3" stroke-width="1.51"/><path d="M2145,467L2132,-217L2137,161Z" fill="#abaead" stroke="#abaead" stroke-width="1.51"/><path d="M-43,-158L-197,-173L-188,-54Z" fill="#ffffff" stroke="#ffffff" stroke-width="1.51"/><path d="M-188,-54L-197,-173L-214,512Z" fill="#fbfbfa" stroke="#fbfbfa" stroke-width="1.51"/><path d="M62,-214L-197,-173L-43,-158Z" fill="#ffffff" stroke="#ffffff" stroke-width="1.51"/><path d="M-28,1291L46,1135L-58,1101Z" fill="#b0b3b3" stroke="#b0b3b3" stroke-width="1.51"/><path d="M-28,1291L46,1292L46,1135Z" fill="#b0b3b2" stroke="#b0b3b2" stroke-width="1.51"/><path d="M177,1245L46,1292L366,1271Z" fill="#acafad" stroke="#acafad" stroke-width="1.51"/><path d="M510,1292L46,1292L918,1322Z" fill="#a6a9a6" stroke="#a6a9a6" stroke-width="1.51"/><path d="M2084,1138L2123,1033L1941,1116Z" fill="#686d6c" stroke="#686d6c" stroke-width="1.51"/><path d="M1989,1267L2084,1138L1941,1116Z" fill="#686d6c" stroke="#686d6c" stroke-width="1.51"/><path d="M1860,1251L1989,1267L1862,1169Z" fill="#686d6c" stroke="#686d6c" stroke-width="1.51"/><path d="M1721,1316L1989,1267L1860,1251Z" fill="#6b706e" stroke="#6b706e" stroke-width="1.51"/><path d="M-163,919L-203,999L-38,1032Z" fill="#b9bbba" stroke="#b9bbba" stroke-width="1.51"/><path d="M-214,512L-203,999L-167,731Z" fill="#ced1ce" stroke="#ced1ce" stroke-width="1.51"/><path d="M-222,1163L-28,1291L-58,1101Z" fill="#b0b3b3" stroke="#b0b3b3" stroke-width="1.51"/><path d="M46,1292L-28,1291L918,1322Z" fill="#aaadab" stroke="#aaadab" stroke-width="1.51"/><path d="M1989,1267L2077,1250L2084,1138Z" fill="#686d6c" stroke="#686d6c" stroke-width="1.51"/><path d="M2084,1138L2077,1250L2123,1033Z" fill="#686d6c" stroke="#686d6c" stroke-width="1.51"/><path d="M-203,999L-222,1163L-58,1101Z" fill="#b0b3b3" stroke="#b0b3b3" stroke-width="1.51"/><path d="M-214,512L-222,1163L-203,999Z" fill="#c1c3c2" stroke="#c1c3c2" stroke-width="1.51"/><path d="M-222,1163L-223,1266L-28,1291Z" fill="#b0b3b3" stroke="#b0b3b3" stroke-width="1.51"/></svg>